<?xml version="1.0" standalone="no"?>
<!DOCTYPE svg PUBLIC "-//W3C//DTD SVG 20010904//EN"
 "http://www.w3.org/TR/2001/REC-SVG-20010904/DTD/svg10.dtd">
<svg version="1.0" xmlns="http://www.w3.org/2000/svg"
 width="512.000000pt" height="512.000000pt" viewBox="0 0 512.000000 512.000000"
 preserveAspectRatio="xMidYMid meet">

<g transform="translate(0.000000,512.000000) scale(0.100000,-0.100000)"
fill="#000000" stroke="none">
<path d="M3266 4950 c-89 -23 -205 -105 -243 -174 -9 -16 -13 -16 -74 4 -195
67 -407 -55 -459 -262 -10 -40 -17 -48 -58 -66 -71 -32 -115 -74 -152 -144
-31 -57 -34 -71 -35 -145 l0 -82 -925 -3 -925 -3 -63 -34 c-70 -38 -100 -69
-140 -145 l-27 -51 0 -1005 0 -1005 34 -63 c38 -70 69 -100 145 -140 l51 -27
467 -3 466 -3 -52 -157 -53 -157 -84 -5 c-100 -7 -145 -26 -198 -86 -58 -66
-74 -142 -49 -228 16 -55 99 -138 154 -154 29 -8 143 -12 377 -12 l335 0 3
-168 4 -168 37 -76 c45 -91 103 -147 196 -191 65 -31 71 -32 233 -35 162 -4
171 -3 363 37 l197 41 572 0 572 0 190 -41 c186 -40 193 -40 360 -37 167 3
171 4 237 35 93 44 151 100 196 191 l37 76 3 695 c2 490 -1 716 -9 764 -31
190 -186 369 -374 432 -27 9 -189 36 -360 61 -170 24 -325 46 -342 49 l-33 6
0 121 0 121 68 67 c130 126 213 279 239 444 l8 49 55 12 c67 13 153 59 186 98
14 17 37 53 52 81 23 44 27 63 27 136 0 69 -5 94 -25 134 -24 50 -79 113 -115
134 l-20 12 20 12 c36 20 91 84 116 134 34 70 34 197 -1 269 -32 65 -93 126
-157 155 -46 21 -52 27 -63 68 -52 207 -264 329 -459 262 -61 -20 -65 -20 -74
-4 -27 48 -96 107 -162 140 -60 30 -85 36 -151 39 -44 3 -96 0 -118 -5z m-79
-900 c82 -64 253 -64 343 0 l32 23 37 -40 c46 -51 92 -82 144 -98 l41 -12 -58
-6 c-31 -3 -78 -16 -104 -28 -62 -30 -136 -107 -157 -164 l-18 -45 -86 0 -86
0 -24 51 c-46 102 -147 175 -257 186 l-58 6 41 12 c51 15 125 66 153 105 25
36 25 35 57 10z m-325 -145 c-23 -7 -49 -19 -57 -25 -17 -14 -18 -10 -6 22 8
21 14 23 57 19 l49 -4 -43 -12z m1061 -5 c3 -11 4 -20 4 -20 -1 1 -27 9 -57
20 l-55 19 45 3 c55 4 56 3 63 -22z m-1553 1 l25 -19 -46 -40 c-24 -22 -58
-64 -74 -93 -27 -49 -30 -62 -30 -149 0 -80 4 -102 23 -138 52 -98 147 -168
241 -179 49 -6 51 -7 57 -42 29 -177 125 -357 254 -474 l61 -54 -3 -124 -3
-123 -365 -78 c-398 -85 -459 -105 -552 -188 l-46 -40 -796 0 -796 0 0 813 0
813 23 44 c16 33 34 51 67 68 l44 22 946 0 c913 0 946 -1 970 -19z m190 -302
l0 -161 -27 7 c-72 17 -133 89 -133 155 0 49 42 113 90 138 24 12 50 22 57 22
10 0 13 -36 13 -161z m493 128 c97 -74 81 -219 -29 -272 -107 -50 -235 43
-221 161 13 121 155 184 250 111z m800 0 c97 -74 81 -219 -29 -272 -107 -50
-235 43 -221 161 13 121 155 184 250 111z m392 5 c33 -19 75 -92 75 -132 0
-66 -61 -138 -132 -155 l-28 -7 0 162 0 162 28 -7 c15 -3 41 -14 57 -23z
m-780 -257 c9 -25 38 -67 63 -93 116 -119 283 -135 418 -40 l57 39 -7 -70
c-13 -142 -75 -283 -171 -390 -21 -23 -71 -64 -112 -91 -375 -251 -886 -41
-977 403 -9 42 -16 92 -16 112 l0 35 48 -34 c169 -122 398 -64 483 123 l24 51
86 0 86 0 18 -45z m-320 -886 c59 -19 93 -22 215 -22 146 0 151 1 303 50 15 5
17 -4 17 -98 0 -87 -4 -111 -21 -144 -122 -232 -476 -232 -598 0 -17 33 -21
57 -21 144 0 94 2 103 18 98 9 -3 49 -16 87 -28z m-1357 -645 c-10 -31 -22
-85 -25 -120 l-6 -64 -654 0 c-729 0 -697 -3 -751 68 -21 28 -27 48 -30 103
l-4 69 744 0 745 0 -19 -56z m-28 -504 l0 -160 -184 0 -185 0 50 148 c27 81
51 153 54 160 3 9 40 12 135 12 l130 0 0 -160z m741 -360 l280 -120 1010 -77
1011 -78 -4 -155 c-3 -167 -10 -193 -67 -253 -55 -60 -92 -71 -251 -75 l-145
-3 -760 160 -759 161 -156 0 -155 0 -120 80 -120 80 -172 0 -173 0 0 200 0
200 151 0 151 0 279 -120z m2299 5 c0 -103 -2 -115 -17 -115 -10 0 -160 11
-333 25 -173 14 -326 25 -340 25 -14 1 66 40 180 90 l205 89 153 0 152 1 0
-115z m-3040 -45 l0 -81 -340 3 c-376 3 -365 1 -376 69 -5 28 -1 39 21 62 l28
27 333 0 334 0 0 -80z m575 -480 l120 -80 170 0 c127 -1 190 -5 250 -19 54
-12 73 -20 60 -24 -11 -3 -141 -31 -289 -62 -266 -56 -271 -57 -410 -53 -113
3 -148 7 -176 22 -88 46 -131 115 -138 224 l-5 72 149 0 149 0 120 -80z"/>
<path d="M480 3680 l0 -80 80 0 80 0 0 80 0 80 -80 0 -80 0 0 -80z"/>
<path d="M800 3680 l0 -80 80 0 80 0 0 80 0 80 -80 0 -80 0 0 -80z"/>
<path d="M1120 3680 l0 -80 80 0 80 0 0 80 0 80 -80 0 -80 0 0 -80z"/>
<path d="M1526 3001 c-86 -215 -157 -396 -159 -402 -2 -10 140 -76 147 -68 7
7 316 784 316 794 0 8 -37 25 -131 60 -14 5 -44 -63 -173 -384z"/>
<path d="M1057 3135 c-235 -176 -235 -174 -7 -345 88 -67 166 -123 174 -126
11 -4 69 62 99 112 3 6 -44 47 -108 95 -63 46 -114 86 -114 89 0 3 51 43 114
89 64 48 111 89 108 95 -19 31 -86 116 -93 116 -4 0 -82 -56 -173 -125z"/>
<path d="M1923 3208 c-22 -29 -42 -58 -46 -64 -3 -6 44 -47 108 -95 63 -46
114 -86 114 -89 0 -3 -51 -43 -114 -89 -64 -48 -111 -89 -108 -95 24 -40 87
-116 97 -115 6 0 83 55 171 122 233 178 233 177 -4 355 -90 67 -167 122 -171
122 -4 0 -25 -24 -47 -52z"/>
<path d="M3298 3203 l-178 -3 0 -81 0 -81 239 4 c132 2 241 6 243 8 2 3 2 40
0 83 l-4 77 -61 -2 c-34 -1 -142 -4 -239 -5z"/>
</g>
</svg>
